<?xml version="1.0" standalone="no"?><!DOCTYPE svg PUBLIC "-//W3C//DTD SVG 1.1//EN" "http://www.w3.org/Graphics/SVG/1.1/DTD/svg11.dtd"><svg t="1656564932637" class="icon" viewBox="0 0 1024 1024" version="1.1" xmlns="http://www.w3.org/2000/svg" p-id="5014" xmlns:xlink="http://www.w3.org/1999/xlink" width="200" height="200"><defs><style type="text/css">@font-face { font-family: feedback-iconfont; src: url("//at.alicdn.com/t/font_1031158_u69w8yhxdu.woff2?t=1630033759944") format("woff2"), url("//at.alicdn.com/t/font_1031158_u69w8yhxdu.woff?t=1630033759944") format("woff"), url("//at.alicdn.com/t/font_1031158_u69w8yhxdu.ttf?t=1630033759944") format("truetype"); }
</style></defs><path d="M486.691591 738.679719c0 114.043383-92.448552 206.490911-206.490911 206.490911S73.708745 852.723102 73.708745 738.679719c0-114.042359 92.449575-206.490911 206.491934-206.490911L417.860946 532.188808l68.830645 0 0 68.830645L486.691591 738.679719 486.691591 738.679719zM532.579711 738.679719c0 114.043383 92.448552 206.490911 206.490911 206.490911s206.490911-92.447529 206.490911-206.490911c0-114.042359-92.448552-206.490911-206.490911-206.490911L601.410356 532.188808l-68.830645 0 0 68.830645L532.579711 738.679719 532.579711 738.679719zM486.691591 279.8108c0-114.043383-92.448552-206.490911-206.490911-206.490911S73.708745 165.767418 73.708745 279.8108s92.449575 206.490911 206.491934 206.490911L417.860946 486.301711l68.830645 0L486.691591 417.471067 486.691591 279.8108 486.691591 279.8108zM532.579711 279.8108 532.579711 279.8108c0-114.043383 92.448552-206.490911 206.490911-206.490911s206.490911 92.448552 206.490911 206.490911-92.448552 206.490911-206.490911 206.490911L601.410356 486.301711l-68.830645 0L532.579711 417.471067 532.579711 279.8108 532.579711 279.8108z" p-id="5015"></path></svg>