<?xml version="1.0" standalone="no"?><!DOCTYPE svg PUBLIC "-//W3C//DTD SVG 1.1//EN" "http://www.w3.org/Graphics/SVG/1.1/DTD/svg11.dtd"><svg t="1657020581555" class="icon" viewBox="0 0 1024 1024" version="1.1" xmlns="http://www.w3.org/2000/svg" p-id="2829" xmlns:xlink="http://www.w3.org/1999/xlink" width="200" height="200"><defs><style type="text/css">@font-face { font-family: feedback-iconfont; src: url("//at.alicdn.com/t/font_1031158_u69w8yhxdu.woff2?t=1630033759944") format("woff2"), url("//at.alicdn.com/t/font_1031158_u69w8yhxdu.woff?t=1630033759944") format("woff"), url("//at.alicdn.com/t/font_1031158_u69w8yhxdu.ttf?t=1630033759944") format("truetype"); }
</style></defs><path d="M512 733.866667c-145.066667 0-264.533333-104.106667-264.533333-232.106667l0-8.533333c0-8.533333 8.533333-17.066667 17.066667-17.066667l494.933333 0c8.533333 0 17.066667 6.826667 17.066667 17.066667l0 6.826667C776.533333 629.76 657.066667 733.866667 512 733.866667zM281.6 512c5.12 104.106667 107.52 187.733333 230.4 187.733333 122.88 0 223.573333-83.626667 230.4-187.733333L281.6 512z" p-id="2830"></path><path d="M503.466667 477.866667c-3.413333 0-5.12 0-8.533333-1.706667-8.533333-5.12-10.24-15.36-6.826667-23.893333 114.346667-201.386667 119.466667-206.506667 122.88-208.213333 6.826667-6.826667 17.066667-6.826667 23.893333 0 6.826667 6.826667 6.826667 17.066667 1.706667 23.893333-8.533333 10.24-76.8 129.706667-117.76 203.093333C515.413333 474.453333 508.586667 477.866667 503.466667 477.866667z" p-id="2831"></path><path d="M554.666667 477.866667c-5.12 0-10.24-1.706667-11.946667-5.12-6.826667-6.826667-5.12-17.066667 1.706667-23.893333l153.6-136.533333c6.826667-6.826667 17.066667-5.12 23.893333 1.706667 6.826667 6.826667 5.12 17.066667-1.706667 23.893333l-153.6 136.533333C563.2 476.16 558.08 477.866667 554.666667 477.866667z" p-id="2832"></path><path d="M588.8 785.066667l-170.666667 0c-10.24 0-17.066667-6.826667-17.066667-17.066667l0-51.2c0-10.24 6.826667-17.066667 17.066667-17.066667s17.066667 6.826667 17.066667 17.066667l0 34.133333 136.533333 0 0-34.133333c0-10.24 6.826667-17.066667 17.066667-17.066667s17.066667 6.826667 17.066667 17.066667l0 51.2C605.866667 778.24 599.04 785.066667 588.8 785.066667z" p-id="2833"></path></svg>