<?xml version="1.0" standalone="no"?><!DOCTYPE svg PUBLIC "-//W3C//DTD SVG 1.1//EN" "http://www.w3.org/Graphics/SVG/1.1/DTD/svg11.dtd"><svg t="1656562509866" class="icon" viewBox="0 0 1032 1024" version="1.1" xmlns="http://www.w3.org/2000/svg" p-id="4097" xmlns:xlink="http://www.w3.org/1999/xlink" width="201.5625" height="200"><defs><style type="text/css">@font-face { font-family: feedback-iconfont; src: url("//at.alicdn.com/t/font_1031158_u69w8yhxdu.woff2?t=1630033759944") format("woff2"), url("//at.alicdn.com/t/font_1031158_u69w8yhxdu.woff?t=1630033759944") format("woff"), url("//at.alicdn.com/t/font_1031158_u69w8yhxdu.ttf?t=1630033759944") format("truetype"); }
</style></defs><path d="M1014.997308 555.522391h-0.787736a55.366559 55.366559 0 0 0-55.028958-50.583878H522.043629V67.688994a55.254025 55.254025 0 0 0-54.803891-55.141491V11.309632l-6.189351 0.675202A499.987032 499.987032 0 0 0 15.24831 497.117424l-0.1688-0.225067v13.560305a500.043299 500.043299 0 0 0 450.303423 498.917963 497.736359 497.736359 0 0 0 367.759987-109.889115 498.355294 498.355294 0 0 0 182.304522-337.826034l-0.450134-6.133085z m-889.466015-45.013462a390.097917 390.097917 0 0 1 286.398154-376.650146v426.277488c0 30.440354 24.701137 55.141491 55.141491 55.141492h425.939887a390.660586 390.660586 0 0 1-376.762679 286.792021h-0.618936a388.241112 388.241112 0 0 1-276.157591-115.009396 388.016045 388.016045 0 0 1-113.940326-270.924776h0.056267l-0.056267-5.626683z" p-id="4098"></path><path d="M604.024397 412.829716c10.46563 10.521897 24.363536 16.31738 39.105445 16.31738l315.150503 0.337601a54.972691 54.972691 0 0 0 52.215616-37.755042h1.294137l0.844003-4.670146c0.675202-3.938678 0.675202-7.98989 0.675202-12.941371l0.393868-5.514149c0.393868-5.570416 0.731469-11.028298 0.731468-16.767514A340.526842 340.526842 0 0 0 637.109292 14.122974a55.028958 55.028958 0 0 0-49.177208 54.691356v293.937909c0.112534 1.744272 0.225067 3.54481 0.506402 5.289082a53.340953 53.340953 0 0 0-0.506402 5.68295 54.353756 54.353756 0 0 0 16.092313 39.105445z m297.426452-94.021869h-203.066982l0.112534-195.020826a230.300126 230.300126 0 0 1 202.954448 195.020826z" p-id="4099"></path></svg>