<?xml version="1.0" standalone="no"?><!DOCTYPE svg PUBLIC "-//W3C//DTD SVG 1.1//EN" "http://www.w3.org/Graphics/SVG/1.1/DTD/svg11.dtd"><svg t="1657020689242" class="icon" viewBox="0 0 1147 1024" version="1.1" xmlns="http://www.w3.org/2000/svg" p-id="4539" xmlns:xlink="http://www.w3.org/1999/xlink" width="224.0234375" height="200"><defs><style type="text/css">@font-face { font-family: feedback-iconfont; src: url("//at.alicdn.com/t/font_1031158_u69w8yhxdu.woff2?t=1630033759944") format("woff2"), url("//at.alicdn.com/t/font_1031158_u69w8yhxdu.woff?t=1630033759944") format("woff"), url("//at.alicdn.com/t/font_1031158_u69w8yhxdu.ttf?t=1630033759944") format("truetype"); }
</style></defs><path d="M183.667803 745.750853H68.339418V165.539819c0-26.742628-31.929388-50.198596-68.339418-50.198595V0c101.283049 0 183.667803 74.257974 183.667803 165.526981zM1147.801805 745.750853H1032.47342V165.539819c0-26.742628-31.955065-50.198596-68.365095-50.198595V0c101.283049 0 183.69348 74.257974 183.69348 165.526981z" fill="#A679FA" p-id="4540"></path><path d="M346.524373 1024c-153.420261 0-278.249147-124.828887-278.249147-278.261986s124.816048-278.249147 278.249147-278.249147 278.249147 124.828887 278.249148 278.261986S499.944634 1024 346.524373 1024z m0-441.16991a163.049147 163.049147 0 0 0-162.920762 162.920763c0 89.869609 73.089669 162.933601 162.920762 162.9336s162.920762-73.089669 162.920762-162.9336a163.049147 163.049147 0 0 0-162.920762-162.920763z" fill="#6048F8" p-id="4541"></path><path d="M869.539819 1024c-153.420261 0-278.249147-124.828887-278.249147-278.261986s124.816048-278.249147 278.249147-278.249147 278.261986 124.828887 278.261986 278.261986S1022.985757 1024 869.539819 1024z m0-441.16991a163.049147 163.049147 0 0 0-162.920762 162.920763c0 89.869609 73.089669 162.933601 162.920762 162.9336A163.126179 163.126179 0 0 0 1032.47342 745.750853c0-89.843932-73.089669-162.920762-162.933601-162.920763z" fill="#6048F8" p-id="4542"></path></svg>